<svg id="Layer_1" data-name="Layer 1" xmlns="http://www.w3.org/2000/svg" viewBox="0 0 422.22 188.98"><defs><style>.cls-1{fill:#2966f4;}</style></defs><polygon class="cls-1" points="332.84 121.58 328.26 135.04 312.04 135.04 300.06 179.6 283.55 179.6 295.53 135.04 270.04 135.04 258.05 179.6 241.54 179.6 253.53 135.04 235.25 135.04 238.85 121.58 332.84 121.58"/><path class="cls-1" d="M387.88,121.41,383,135.14h5.17L393,121.41Zm-10.11,0-4.9,13.73h5l4.91-13.73Zm6.7,24a11.91,11.91,0,0,0-7.25-2.08H350.7c-1.92,0-3-.57-3.23-1.68a1.85,1.85,0,0,1,0-.23,5.55,5.55,0,0,1,1.91-5l.19-.15a7,7,0,0,1,4.17-1.08h14.07l4.91-13.73H343.76q-6.7,0-8.32,6.47-.15.59-5.69,16.65a13.42,13.42,0,0,0-.81,4.37,8.29,8.29,0,0,0,.08,1.23,6.77,6.77,0,0,0,2.74,4.8,11.61,11.61,0,0,0,7.18,2.11h26.51a5.24,5.24,0,0,1,2.81.6,1.23,1.23,0,0,1,.29.21,1.54,1.54,0,0,1,.17.19.72.72,0,0,1,.18.25,1.72,1.72,0,0,1,.25.71,2.64,2.64,0,0,1,0,.28,0,0,0,0,1,0,.07,4.9,4.9,0,0,1-.57,2.34,5.94,5.94,0,0,1-1.72,2.58l-.19.15a5.23,5.23,0,0,1-.93.53,7.72,7.72,0,0,1-4,.93H327.34l-4.9,13.73h49.22a9,9,0,0,0,4.26-.93,6.2,6.2,0,0,0,1.3-.91A11.08,11.08,0,0,0,380,173.1q4.23-11.35,6.42-17.27a13.53,13.53,0,0,0,.87-4.21v-.25A7,7,0,0,0,384.47,145.4Z"/><polygon class="cls-1" points="35.92 121.41 20.34 179.43 36.85 179.43 52.43 121.41 35.92 121.41"/><polygon class="cls-1" points="172.14 121.41 152.57 156.19 150.19 121.23 135.35 121.23 114.3 156.28 113.36 121.41 96.25 121.41 99.56 179.87 114.58 179.87 136.42 144.69 139.45 179.87 154.49 179.87 189.16 121.41 172.14 121.41"/><polygon class="cls-1" points="205.99 120.97 165.85 179.43 183.46 179.43 188.25 172.04 210.38 137.14 213.78 172.88 214.62 179.43 232.51 179.43 223.72 120.97 205.99 120.97"/><path class="cls-1" d="M130.06,111.87H86.35L68.22,179.43H51.71l18.14-67.56H38.42L42,98.4h76.36A52.2,52.2,0,0,0,123.9,106,51.24,51.24,0,0,0,130.06,111.87Z"/><path class="cls-1" d="M401.87,98.4l-3.61,13.47H298a50.12,50.12,0,0,0,6.14-5.87,50.93,50.93,0,0,0,5.52-7.6Z"/><path class="cls-1" d="M132.35,98.55a39.13,39.13,0,0,0,15.88,10.91,36.74,36.74,0,0,0,6.17,1.71,36,36,0,0,0,7.11.69,34.71,34.71,0,0,0,7-.69,35.76,35.76,0,0,0,12.67-5.06,37.29,37.29,0,0,0,8.24-7.34l.19-.22,4.3-5.16-6.23,3.24s-1.61.83-4,1.92c-1.65.73-3.69,1.62-5.86,2.4a33.71,33.71,0,0,1-6.06,1.82c-1.26.22-2.4.41-3.77.53a33.36,33.36,0,0,1-8-.31,30.73,30.73,0,0,1-21.32-13.84,30.54,30.54,0,0,1,0-32.8,26.27,26.27,0,0,1,2.43-3.26c5.66-6.7,14.23-11,21.85-11.05H163c4.11,0,8.57,1.76,12.65,4.94a25.55,25.55,0,0,1,4.94,5.19,23.51,23.51,0,0,1,1.87,3.07l.14.25a18.82,18.82,0,0,1,1.06,2.26c-2.1,2.15-7.82,8.46-24.59,27l-8.76,9.66L192.8,64l.34-.31a5.89,5.89,0,0,0,.64-.78l0,0A6.77,6.77,0,0,0,195,59.54c.28-2.74-.9-5.7-2.32-8.21a33.19,33.19,0,0,0-4.13-5.69l-.59-.59a29.89,29.89,0,0,0-3.23-3c-.84-.7-1.71-1.37-2.57-2a37.45,37.45,0,0,0-20.91-6.36A38.39,38.39,0,0,0,148,36.06c-19,6.84-29.8,29-23.58,48.43A38.38,38.38,0,0,0,132.35,98.55Z"/><path class="cls-1" d="M238.71,98.75a36.23,36.23,0,0,0,8.23,7.39,35.6,35.6,0,0,0,12.65,5,34.61,34.61,0,0,0,7,.69,36.18,36.18,0,0,0,7.12-.69,37,37,0,0,0,6.17-1.71,39.26,39.26,0,0,0,15.9-10.91,38.29,38.29,0,0,0,7.87-14.06,39,39,0,0,0-5.33-34.16A38.52,38.52,0,0,0,279.18,35.7a33.19,33.19,0,0,0-3.24-.92,34.88,34.88,0,0,0-7.23-1.09c-11.52-.58-23.08,4.44-30.06,13.09l-5.72,7.12L232,55a.09.09,0,0,0,.06,0c.14-.08.58-.39,1.28-.86h0A148.94,148.94,0,0,1,247.19,46a29.25,29.25,0,0,1,4.11-1.9,19,19,0,0,1,3.15-1,32,32,0,0,1,25.87,4.1C291.71,54.6,296.56,67.66,293,81.28a30.32,30.32,0,0,1-13.06,17.27A31.75,31.75,0,0,1,272.4,102a27.89,27.89,0,0,1-3.24.81,32.54,32.54,0,0,1-10.78.31l-1.25-.17a45.74,45.74,0,0,1-13.31-4.38,32.88,32.88,0,0,1-3.27-1.84l-8.06-5.41,6,7.25Z"/><path class="cls-1" d="M233.32,15.7l-5.32-1-11.89-2.27,12-1.86a153.08,153.08,0,0,1,18.84-1.46c13.91-.23,31.68,1.8,37.31,12.31a14.7,14.7,0,0,1,.78,2.78,5.08,5.08,0,0,1-1.88,5.22,4.52,4.52,0,0,1-2.58.79,6,6,0,0,1-3-.87c-13.6-8-28.46-10.71-44.19-13.64"/><path class="cls-1" d="M189.51,28.89c9.91,0,27.52.36,39.43,2.79L197.69,54.57l64.44,21.91L218.34,52.2l21.12-15.74L249,28.92l3.21-2.74-4.16-.92c-4.46-1-9-1.87-13.51-2.56a143.71,143.71,0,0,0-21.77-1.76h-1.31c-18.81.36-28.27,5.16-28.66,5.36L177.59,29l6.87-.11C185.43,28.92,187.16,28.89,189.51,28.89Z"/><polygon class="cls-1" points="206.35 179.43 193.37 179.43 195.28 176.5 204.47 161.97 205.58 173.31 206.35 179.43"/></svg>