<?xml version="1.0" encoding="UTF-8" standalone="no"?>
<svg
   id="Layer_1"
   data-name="Layer 1"
   viewBox="0 0 178269.73 35713.442"
   version="1.1"
   sodipodi:docname="Itwatts_blue.svg"
   width="178269.73"
   height="35713.441"
   xmlns:inkscape="http://www.inkscape.org/namespaces/inkscape"
   xmlns:sodipodi="http://sodipodi.sourceforge.net/DTD/sodipodi-0.dtd"
   xmlns="http://www.w3.org/2000/svg"
   xmlns:svg="http://www.w3.org/2000/svg">
  <sodipodi:namedview
     id="namedview9"
     pagecolor="#ffffff"
     bordercolor="#000000"
     borderopacity="0.25"
     inkscape:showpageshadow="2"
     inkscape:pageopacity="0.0"
     inkscape:pagecheckerboard="0"
     inkscape:deskcolor="#d1d1d1" />
  <defs
     id="defs1">
    <style
       id="style1">.cls-1{fill:#2966f4;}</style>
  </defs>
  <polygon
     class="cls-1"
     points="312.04,135.04 300.06,179.6 283.55,179.6 295.53,135.04 270.04,135.04 258.05,179.6 241.54,179.6 253.53,135.04 235.25,135.04 238.85,121.58 332.84,121.58 328.26,135.04 "
     id="polygon1"
     style="fill:#ffffff;fill-opacity:1" />
  <path
     class="cls-1"
     d="M 387.88,121.41 383,135.14 h 5.17 L 393,121.41 Z m -10.11,0 -4.9,13.73 h 5 l 4.91,-13.73 z m 6.7,24 a 11.91,11.91 0 0 0 -7.25,-2.08 H 350.7 c -1.92,0 -3,-0.57 -3.23,-1.68 a 1.85,1.85 0 0 1 0,-0.23 5.55,5.55 0 0 1 1.91,-5 l 0.19,-0.15 a 7,7 0 0 1 4.17,-1.08 h 14.07 l 4.91,-13.73 h -28.96 q -6.7,0 -8.32,6.47 -0.15,0.59 -5.69,16.65 a 13.42,13.42 0 0 0 -0.81,4.37 8.29,8.29 0 0 0 0.08,1.23 6.77,6.77 0 0 0 2.74,4.8 11.61,11.61 0 0 0 7.18,2.11 h 26.51 a 5.24,5.24 0 0 1 2.81,0.6 1.23,1.23 0 0 1 0.29,0.21 1.54,1.54 0 0 1 0.17,0.19 0.72,0.72 0 0 1 0.18,0.25 1.72,1.72 0 0 1 0.25,0.71 2.64,2.64 0 0 1 0,0.28 0,0 0 0 0 0,0.07 4.9,4.9 0 0 1 -0.57,2.34 5.94,5.94 0 0 1 -1.72,2.58 l -0.19,0.15 a 5.23,5.23 0 0 1 -0.93,0.53 7.72,7.72 0 0 1 -4,0.93 h -34.4 l -4.9,13.73 h 49.22 a 9,9 0 0 0 4.26,-0.93 6.2,6.2 0 0 0 1.3,-0.91 11.08,11.08 0 0 0 2.78,-4.72 q 4.23,-11.35 6.42,-17.27 a 13.53,13.53 0 0 0 0.87,-4.21 v -0.25 a 7,7 0 0 0 -2.82,-5.97 z"
     id="path1"
     style="fill:#ffffff;fill-opacity:1" />
  <polygon
     class="cls-1"
     points="36.85,179.43 52.43,121.41 35.92,121.41 20.34,179.43 "
     id="polygon2"
     style="fill:#ffffff;fill-opacity:1" />
  <polygon
     class="cls-1"
     points="150.19,121.23 135.35,121.23 114.3,156.28 113.36,121.41 96.25,121.41 99.56,179.87 114.58,179.87 136.42,144.69 139.45,179.87 154.49,179.87 189.16,121.41 172.14,121.41 152.57,156.19 "
     id="polygon3"
     style="fill:#ffffff;fill-opacity:1" />
  <polygon
     class="cls-1"
     points="183.46,179.43 188.25,172.04 210.38,137.14 213.78,172.88 214.62,179.43 232.51,179.43 223.72,120.97 205.99,120.97 165.85,179.43 "
     id="polygon4"
     style="fill:#ffffff;fill-opacity:1" />
  <path
     class="cls-1"
     d="M 130.06,111.87 H 86.35 L 68.22,179.43 H 51.71 L 69.85,111.87 H 38.42 L 42,98.4 h 76.36 a 52.2,52.2 0 0 0 5.54,7.6 51.24,51.24 0 0 0 6.16,5.87 z"
     id="path4"
     style="fill:#ffffff;fill-opacity:1" />
  <path
     class="cls-1"
     d="m 401.87,98.4 -3.61,13.47 H 298 a 50.12,50.12 0 0 0 6.14,-5.87 50.93,50.93 0 0 0 5.52,-7.6 z"
     id="path5"
     style="fill:#ffffff;fill-opacity:1" />
  <path
     class="cls-1"
     d="m 132.35,98.55 a 39.13,39.13 0 0 0 15.88,10.91 36.74,36.74 0 0 0 6.17,1.71 36,36 0 0 0 7.11,0.69 34.71,34.71 0 0 0 7,-0.69 35.76,35.76 0 0 0 12.67,-5.06 37.29,37.29 0 0 0 8.24,-7.34 l 0.19,-0.22 4.3,-5.16 -6.23,3.24 c 0,0 -1.61,0.83 -4,1.92 -1.65,0.73 -3.69,1.62 -5.86,2.4 a 33.71,33.71 0 0 1 -6.06,1.82 c -1.26,0.22 -2.4,0.41 -3.77,0.53 a 33.36,33.36 0 0 1 -8,-0.31 30.73,30.73 0 0 1 -21.32,-13.84 30.54,30.54 0 0 1 0,-32.8 26.27,26.27 0 0 1 2.43,-3.26 c 5.66,-6.7 14.23,-11 21.85,-11.05 H 163 c 4.11,0 8.57,1.76 12.65,4.94 a 25.55,25.55 0 0 1 4.94,5.19 23.51,23.51 0 0 1 1.87,3.07 l 0.14,0.25 a 18.82,18.82 0 0 1 1.06,2.26 c -2.1,2.15 -7.82,8.46 -24.59,27 l -8.76,9.66 42.49,-30.41 0.34,-0.31 a 5.89,5.89 0 0 0 0.64,-0.78 v 0 A 6.77,6.77 0 0 0 195,59.54 c 0.28,-2.74 -0.9,-5.7 -2.32,-8.21 a 33.19,33.19 0 0 0 -4.13,-5.69 l -0.59,-0.59 a 29.89,29.89 0 0 0 -3.23,-3 c -0.84,-0.7 -1.71,-1.37 -2.57,-2 A 37.45,37.45 0 0 0 161.25,33.69 38.39,38.39 0 0 0 148,36.06 c -19,6.84 -29.8,29 -23.58,48.43 a 38.38,38.38 0 0 0 7.93,14.06 z"
     id="path6"
     style="fill:#ffffff;fill-opacity:1" />
  <path
     class="cls-1"
     d="m 238.71,98.75 a 36.23,36.23 0 0 0 8.23,7.39 35.6,35.6 0 0 0 12.65,5 34.61,34.61 0 0 0 7,0.69 36.18,36.18 0 0 0 7.12,-0.69 37,37 0 0 0 6.17,-1.71 39.26,39.26 0 0 0 15.9,-10.91 38.29,38.29 0 0 0 7.87,-14.06 39,39 0 0 0 -5.33,-34.16 38.52,38.52 0 0 0 -19.14,-14.6 33.19,33.19 0 0 0 -3.24,-0.92 34.88,34.88 0 0 0 -7.23,-1.09 c -11.52,-0.58 -23.08,4.44 -30.06,13.09 L 232.93,53.9 232,55 a 0.09,0.09 0 0 0 0.06,0 c 0.14,-0.08 0.58,-0.39 1.28,-0.86 v 0 a 148.94,148.94 0 0 1 13.85,-8.14 29.25,29.25 0 0 1 4.11,-1.9 19,19 0 0 1 3.15,-1 32,32 0 0 1 25.87,4.1 c 11.39,7.4 16.24,20.46 12.68,34.08 a 30.32,30.32 0 0 1 -13.06,17.27 31.75,31.75 0 0 1 -7.54,3.45 27.89,27.89 0 0 1 -3.24,0.81 32.54,32.54 0 0 1 -10.78,0.31 l -1.25,-0.17 a 45.74,45.74 0 0 1 -13.31,-4.38 32.88,32.88 0 0 1 -3.27,-1.84 l -8.06,-5.41 6,7.25 z"
     id="path7"
     style="fill:#ffffff;fill-opacity:1" />
  <path
     class="cls-1"
     d="m 233.32,15.7 -5.32,-1 -11.89,-2.27 12,-1.86 a 153.08,153.08 0 0 1 18.84,-1.46 c 13.91,-0.23 31.68,1.8 37.31,12.31 a 14.7,14.7 0 0 1 0.78,2.78 5.08,5.08 0 0 1 -1.88,5.22 4.52,4.52 0 0 1 -2.58,0.79 6,6 0 0 1 -3,-0.87 c -13.6,-8 -28.46,-10.71 -44.19,-13.64"
     id="path8"
     style="fill:#ffffff;fill-opacity:1" />
  <path
     class="cls-1"
     d="m 189.51,28.89 c 9.91,0 27.52,0.36 39.43,2.79 l -31.25,22.89 64.44,21.91 -43.79,-24.28 21.12,-15.74 9.54,-7.54 3.21,-2.74 -4.16,-0.92 c -4.46,-1 -9,-1.87 -13.51,-2.56 a 143.71,143.71 0 0 0 -21.77,-1.76 h -1.31 C 192.65,21.3 183.19,26.1 182.8,26.3 l -5.21,2.7 6.87,-0.11 c 0.97,0.03 2.7,0 5.05,0 z"
     id="path9"
     style="fill:#ffffff;fill-opacity:1" />
  <polygon
     class="cls-1"
     points="205.58,173.31 206.35,179.43 193.37,179.43 195.28,176.5 204.47,161.97 "
     id="polygon9"
     style="display:inline;fill:#ffffff;fill-opacity:1" />
</svg>
